<?xml version="1.0" encoding="UTF-8" standalone="no"?>
<!-- Created with Inkscape (http://www.inkscape.org/) -->

<svg
   width="128"
   height="128"
   viewBox="0 0 128 128"
   version="1.1"
   id="SVGRoot"
   xml:space="preserve"
   xmlns="http://www.w3.org/2000/svg"
   xmlns:svg="http://www.w3.org/2000/svg"><defs
     id="defs132" /><g
     id="layer1"
     style="display:inline"><path
       id="rect369"
       style="fill:#ffffff;stroke-width:0.671027"
       d="m 6.4189454,13.949219 c -1.1496782,0 -2.0742188,0.926493 -2.0742188,2.076172 v 7.779297 c 0,1.149677 0.9245406,2.076171 2.0742188,2.076171 h 9.8691396 v 85.517581 c 0,1.46913 1.183211,2.65234 2.652344,2.65234 h 6.84961 c 1.469132,0 2.652343,-1.18321 2.652343,-2.65234 V 16.601562 c 0,-1.469131 -1.183211,-2.652342 -2.652343,-2.652342 h -6.84961 c -0.08983,0 -0.174235,0.0187 -0.261718,0.02734 -0.101741,-0.01522 -0.204437,-0.02734 -0.310547,-0.02734 z M 36.163085,30.271484 c -2.872391,0 -5.183593,2.313156 -5.183593,5.185547 v 14.34961 c 0.06248,-0.0049 0.12371,-0.0098 0.1875,-0.0098 h 3 c 1.307468,0 2.359375,1.051904 2.359375,2.359375 v 23.578125 c 0,1.307472 -1.051907,2.359375 -2.359375,2.359375 h -3 c -0.06379,0 -0.125017,-0.0048 -0.1875,-0.0098 v 14.375 c 0,2.872395 2.311202,5.185547 5.183593,5.185547 h 12.289063 v -8.724609 c 0,-1.621651 1.306086,-2.925781 2.927734,-2.925781 h 14.34375 c 1.621652,0 2.927735,1.30413 2.927735,2.925781 v 8.724609 h 3.660156 V 86.070312 h 4.396484 v 11.574219 h 3.603516 V 86.070312 h 4.396484 v 11.574219 h 3.603516 V 86.070312 h 4.396484 v 11.574219 h 3.603516 V 86.070312 H 100.708 v 11.574219 h 3.60352 V 86.070312 h 4.39648 v 11.574219 h 3.60352 V 86.070312 h 4.39648 v 11.574219 h 1.76172 c 2.8724,0 5.18555,-2.313152 5.18555,-5.185547 V 35.457031 c 0,-2.872391 -2.31315,-5.185547 -5.18555,-5.185547 z m 54.388672,7.609375 h 4.296875 v 4.007813 h 1.703125 v -4.007813 h 4.296873 v 4.007813 h 1.70312 v -4.007813 h 4.29688 v 4.007813 h 3.98633 c 1.1161,0 2.01562,0.899522 2.01562,2.015625 0,0.03488 -0.004,0.06909 -0.006,0.103515 v 3.916016 h 3.99219 v 4.296875 h -3.99219 v 1.703125 h 3.99219 v 4.296875 h -3.99219 v 1.703125 h 3.99219 v 4.296875 h -3.99219 v 3.580078 c 0.002,0.03443 0.006,0.06864 0.006,0.103516 0,0.03422 -0.004,0.06777 -0.006,0.101562 -0.0528,1.068326 -0.92788,1.91211 -2.00976,1.91211 h -3.98633 v 4.605469 h -4.29688 v -4.605469 h -1.70312 v 4.605469 h -4.296873 v -4.605469 h -1.703125 v 4.605469 h -4.296875 v -4.605469 h -3.851562 c -1.080552,0 -1.953065,-0.841739 -2.007813,-1.908203 h -0.0039 v -0.06445 c -2.74e-4,-0.01375 -0.002,-0.0272 -0.002,-0.04102 0,-0.01382 0.0017,-0.02726 0.002,-0.04102 v -3.642578 h -4.494141 v -4.296875 h 4.494141 v -1.703125 h -4.494141 v -4.296875 h 4.494141 v -1.703125 h -4.494141 v -4.296875 h 4.494141 v -3.978516 c -2.74e-4,-0.01375 -0.002,-0.02719 -0.002,-0.04102 0,-0.01382 0.0017,-0.02726 0.002,-0.04102 v -0.03906 h 0.002 c 0.04201,-1.078465 0.920647,-1.935547 2.009766,-1.935547 h 3.851562 z m -38.072265,4.091797 a 3.9831991,3.8991914 0 0 1 3.982422,3.898438 3.9831991,3.8991914 0 0 1 -3.982422,3.90039 3.9831991,3.8991914 0 0 1 -3.984375,-3.90039 3.9831991,3.8991914 0 0 1 3.984375,-3.898438 z m 12,0 a 3.9831991,3.8991914 0 0 1 3.982422,3.898438 3.9831991,3.8991914 0 0 1 -3.982422,3.90039 3.9831991,3.8991914 0 0 1 -3.984375,-3.90039 3.9831991,3.8991914 0 0 1 3.984375,-3.898438 z m 24.238281,3.945313 V 65.888672 H 108.81543 V 45.917969 Z m 3.974609,3.978515 h 12.095698 v 2.648438 h 0.002 v 7.736328 h -0.002 v 1.541016 H 92.692382 v -3.925782 h 0.002 v -4.074218 h -0.002 z m 3.925782,3.925782 v 4.074218 h 4.246086 v -4.074218 z m -48.234375,0.164062 h 24.292968 v 4 H 48.383789 Z m 0,8 h 16.101562 v 4 H 48.383789 Z m 20.173828,0 h 3.927734 v 4 h -3.927734 z m -20.173828,8 h 16.101562 v 4 H 48.383789 Z m 20.173828,0 h 3.927734 v 4 h -3.927734 z" /></g></svg>