<?xml version="1.0" encoding="UTF-8" standalone="no"?>
<!-- Created with Inkscape (http://www.inkscape.org/) -->

<svg
   width="128"
   height="128"
   viewBox="0 0 128 128"
   version="1.1"
   id="SVGRoot"
   xml:space="preserve"
   xmlns:xlink="http://www.w3.org/1999/xlink"
   xmlns="http://www.w3.org/2000/svg"
   xmlns:svg="http://www.w3.org/2000/svg"><defs
     id="defs132"><linearGradient
       id="linearGradient1176"><stop
         style="stop-color:#333333;stop-opacity:1;"
         offset="0"
         id="stop1172" /><stop
         style="stop-color:#5a5a5a;stop-opacity:1;"
         offset="1"
         id="stop1174" /></linearGradient><linearGradient
       xlink:href="#linearGradient1176"
       id="linearGradient1178"
       x1="64.38282"
       y1="-4.0667892"
       x2="64.38282"
       y2="131.35062"
       gradientUnits="userSpaceOnUse" /></defs><g
     id="layer1"
     style="display:inline"
     transform="matrix(0.82292452,0,0,0.82292452,11.33283,11.332831)"><g
       id="g1229"><rect
         style="fill:url(#linearGradient1178);fill-opacity:1;stroke:none;stroke-width:1.92911;stroke-dasharray:none;stroke-opacity:1"
         id="rect1093"
         width="137.81639"
         height="137.81639"
         x="-4.9081979"
         y="-4.908196"
         ry="30.104101" /><path
         id="rect369"
         style="fill:#ffffff;stroke-width:0.582757"
         d="m 13.993458,20.533158 c -0.998443,0 -1.801365,0.804618 -1.801365,1.803062 v 6.755968 c 0,0.998442 0.802922,1.803061 1.801365,1.803061 H 22.56436 V 105.1634 c 0,1.27588 1.027566,2.30344 2.303441,2.30344 h 5.948577 c 1.275875,0 2.30344,-1.02756 2.30344,-2.30344 V 22.836599 c 0,-1.275874 -1.027565,-2.30344 -2.30344,-2.30344 h -5.948577 c -0.07801,0 -0.151315,0.01624 -0.22729,0.02374 -0.08836,-0.01322 -0.177544,-0.02374 -0.269696,-0.02374 z M 39.8249,34.708308 c -2.494542,0 -4.501717,2.008872 -4.501717,4.503413 v 12.461988 c 0.05426,-0.0043 0.107437,-0.0085 0.162836,-0.0085 h 2.605364 c 1.135477,0 2.049011,0.913531 2.049011,2.049011 v 20.476536 c 0,1.13548 -0.913534,2.049011 -2.049011,2.049011 h -2.605364 c -0.0554,0 -0.108572,-0.0042 -0.162836,-0.0085 v 12.484038 c 0,2.494545 2.007175,4.503413 4.501717,4.503413 h 10.672496 v -7.576929 c 0,-1.40833 1.134276,-2.540908 2.542604,-2.540908 h 12.456899 c 1.408332,0 2.542606,1.132578 2.542606,2.540908 v 7.576929 h 3.17868 V 83.167069 h 3.818147 v 10.051686 h 3.129491 V 83.167069 h 3.818148 v 10.051686 h 3.129491 V 83.167069 h 3.818147 V 93.218755 H 92.0611 V 83.167069 h 3.818139 v 10.051686 h 3.129494 V 83.167069 h 3.818147 v 10.051686 h 3.12949 V 83.167069 h 3.81815 v 10.051686 h 1.52997 c 2.49455,0 4.50342,-2.008868 4.50342,-4.503413 V 39.211721 c 0,-2.494541 -2.00887,-4.503413 -4.50342,-4.503413 z m 47.234104,6.608398 h 3.731641 v 3.480605 h 1.479088 v -3.480605 h 3.731637 v 3.480605 h 1.479083 v -3.480605 h 3.731647 v 3.480605 h 3.46195 c 0.96928,0 1.75047,0.781194 1.75047,1.750479 0,0.03029 -0.003,0.06 -0.005,0.0899 v 3.400883 h 3.46704 v 3.731642 h -3.46704 V 55.2493 h 3.46704 v 3.731642 h -3.46704 v 1.479087 h 3.46704 v 3.731642 h -3.46704 v 3.109136 c 0.002,0.0299 0.005,0.05961 0.005,0.0899 0,0.02972 -0.003,0.05886 -0.005,0.0882 -0.0459,0.927792 -0.80582,1.660581 -1.74539,1.660581 h -3.46194 v 3.999641 h -3.731649 v -3.999641 h -1.479083 v 3.999641 h -3.731637 v -3.999641 h -1.479087 v 3.999641 h -3.731642 v -3.999641 h -3.344907 c -0.938411,0 -1.696149,-0.731013 -1.743695,-1.657188 h -0.0034 v -0.05597 c -2.38e-4,-0.01194 -0.0017,-0.02362 -0.0017,-0.03562 0,-0.012 0.0015,-0.02367 0.0017,-0.03562 v -3.163415 h -3.902959 v -3.731641 h 3.902959 v -1.479088 h -3.902959 v -3.731641 h 3.902959 v -1.479087 h -3.902959 v -3.731642 h 3.902959 v -3.455162 c -2.38e-4,-0.01194 -0.0017,-0.02361 -0.0017,-0.03562 0,-0.012 0.0015,-0.02367 0.0017,-0.03562 v -0.03392 h 0.0017 c 0.03648,-0.936599 0.79954,-1.680936 1.745391,-1.680936 h 3.344907 z m -33.064042,3.553541 a 3.4592284,3.3862715 0 0 1 3.458553,3.385617 3.4592284,3.3862715 0 0 1 -3.458553,3.387313 3.4592284,3.3862715 0 0 1 -3.46025,-3.387313 3.4592284,3.3862715 0 0 1 3.46025,-3.385617 z m 10.421458,0 a 3.4592284,3.3862715 0 0 1 3.458553,3.385617 3.4592284,3.3862715 0 0 1 -3.458553,3.387313 3.4592284,3.3862715 0 0 1 -3.46025,-3.387313 3.4592284,3.3862715 0 0 1 3.46025,-3.385617 z m 21.049851,3.426326 V 65.640226 H 102.92018 V 48.296573 Z m 3.451769,3.455161 h 10.504564 v 2.300048 h 0.0017 v 6.718652 h -0.0017 v 1.338303 H 88.91804 v -3.409365 h 0.0017 v -3.538274 h -0.0017 z m 3.409364,3.409364 v 3.538274 h 3.687531 v -3.538274 z m -41.889375,0.14248 h 21.097345 v 3.47382 H 50.438029 Z m 0,6.947639 h 13.983479 v 3.473819 H 50.438029 Z m 17.520058,0 h 3.411059 v 3.473819 h -3.411059 z m -17.520058,6.947638 h 13.983479 v 3.47382 H 50.438029 Z m 17.520058,0 h 3.411059 v 3.47382 h -3.411059 z" /></g></g></svg>
